
nColumns=19
nRows=45
DataType=double
version=3
OpenSimVersion=4.4-2022-10-11-798caa840
endheader
time	ground_force_calcn_r_vx	ground_force_calcn_r_vy	ground_force_calcn_r_vz	ground_force_calcn_r_px	ground_force_calcn_r_py	ground_force_calcn_r_pz	ground_force_calcn_r_mx	ground_force_calcn_r_my	ground_force_calcn_r_mz	ground_force_calcn_l_vx	ground_force_calcn_l_vy	ground_force_calcn_l_vz	ground_force_calcn_l_px	ground_force_calcn_l_py	ground_force_calcn_l_pz	ground_force_calcn_l_mx	ground_force_calcn_l_my	ground_force_calcn_l_mz
1.46	-227.207	371.029	4.6583	-0.144222	0	-0.477496	-0.283806	0.463454	0.00581871	0	0	0	0	0	0	0	0	0
1.47	-421.382	764.808	-17.9413	-0.148368	0	-0.475425	-0.940456	1.70693	-0.0400421	0	0	0	0	0	0	0	0	0
1.48	-200.94	813.6180000000001	-42.5568	-0.188254	0	-0.477649	-0.46732	1.8922	-0.0989729	0	0	0	0	0	0	0	0	0
1.49	-78.9944	1599.37	-51.0136	-0.2525	0	-0.48415	0.182786	-3.70079	0.118041	-120.811	173.555	-1.15982	-0.125998	0	-0.786597	0.183436	-0.26352	0.00176104
1.5	-39.7757	2172.46	-20.4354	-0.267237	0	-0.487423	0.196489	-10.7318	0.100949	-235.983	440.448	11.9762	-0.137007	0	-0.791075	0.617112	-1.1518	-0.0313186
1.51	-256.102	1620.56	-23.2617	-0.249692	0	-0.486269	1.94118	-12.2833	0.176317	-128.338	397.475	53.0392	-0.144379	0	-0.790705	0.97393	-3.01636	-0.402504
1.52	-380.643	1072.38	-66.96339999999999	-0.214313	0	-0.48071	2.99163	-8.42831	0.526294	-71.75	329.499	40.195	-0.148387	0	-0.781876	0.510297	-2.34345	-0.285874
1.53	-302.235	880.49	-93.75700000000001	-0.192799	0	-0.476892	1.98612	-5.78608	0.616117	-96.02330000000001	345.056	2.3537	-0.149152	0	-0.770293	-0.244774	0.879586	0.00599986
1.54	-236.585	859.397	-90.8843	-0.185986	0	-0.476272	1.46635	-5.32654	0.5633010000000001	-128.749	396.096	-20.9059	-0.151443	0	-0.7643760000000001	-1.39268	4.28458	-0.22614
1.55	-239.872	861.843	-79.3232	-0.180238	0	-0.476613	1.46585	-5.26669	0.484741	-148.18	485.88	-25.5304	-0.160027	0	-0.762377	-2.08837	6.84771	-0.35981
1.56	-230.685	879.672	-72.4303	-0.178951	0	-0.477092	1.4133	-5.38935	0.443747	-119.882	581.249	-8.34484	-0.171574	0	-0.761459	-1.59972	7.75626	-0.111355
1.57	-189.375	899.322	-61.3794	-0.181809	0	-0.478103	1.30961	-6.21924	0.424468	-93.9084	621.967	29.1437	-0.174583	0	-0.762749	-0.9428	6.24429	0.29259
1.58	-147.929	918.553	-44.1266	-0.186262	0	-0.479641	1.18581	-7.36319	0.353722	-100.989	582.533	55.6316	-0.165724	0	-0.764006	-0.647284	3.73371	0.356567
1.59	-118.555	925.25	-37.3015	-0.189861	0	-0.480592	0.937497	-7.31662	0.29497	-111.855	513.1130000000001	56.1349	-0.153351	0	-0.763207	-0.527844	2.42137	0.2649
1.6	-103.418	898.072	-38.7066	-0.190134	0	-0.4809	0.719787	-6.25056	0.269397	-113.685	452.55	43.7117	-0.144079	0	-0.761441	-0.61234	2.43757	0.235444
1.61	-105.014	835.186	-35.0253	-0.186152	0	-0.48137	0.680472	-5.41187	0.226958	-108.862	404.074	31.8554	-0.138478	0	-0.759783	-0.695773	2.58258	0.203599
1.62	-107.308	756.861	-26.136	-0.180357	0	-0.482173	0.698455	-4.9263	0.170116	-100.363	363.778	25.7967	-0.135181	0	-0.758821	-0.633518	2.29626	0.162835
1.63	-96.4828	687.191	-18.5475	-0.176073	0	-0.483071	0.63036	-4.48969	0.121178	-88.6241	333.862	26.7313	-0.133581	0	-0.758732	-0.419988	1.58216	0.126679
1.64	-78.5039	632.538	-13.8342	-0.173669	0	-0.483839	0.498273	-4.01479	0.0878075	-74.6515	320.673	34.5846	-0.134275	0	-0.760127	-0.141006	0.605708	0.0653256
1.65	-63.0008	588.7670000000001	-12.0741	-0.171957	0	-0.484231	0.364025	-3.40196	0.0697651	-60.3818	325.079	47.1493	-0.137045	0	-0.763043	0.0720095	-0.38768	-0.0562289
1.66	-53.1658	553.011	-12.5546	-0.170516	0	-0.484462	0.261196	-2.71687	0.0616791	-46.0002	340.361	59.3782	-0.140957	0	-0.766228	0.151192	-1.11869	-0.195163
1.67	-47.0613	524.917	-13.3829	-0.169652	0	-0.484615	0.196921	-2.19644	0.0559989	-31.7258	358.529	66.39870000000001	-0.145516	0	-0.768584	0.107318	-1.21279	-0.224605
1.68	-41.1978	502.205	-12.9129	-0.169369	0	-0.484836	0.152846	-1.8632	0.0479074	-19.737	375.905	66.2764	-0.14962	0	-0.769519	0.0331189	-0.6307739999999999	-0.111213
1.69	-35.7593	482.407	-11.1723	-0.169211	0	-0.485046	0.123882	-1.67122	0.0387046	-10.8621	387.93	60.6978	-0.153149	0	-0.769419	-0.00970743	0.346691	0.0542453
1.7	-32.7871	466.215	-8.86544	-0.168731	0	-0.485168	0.115853	-1.64737	0.031326	-6.20093	387.78	54.4278	-0.155002	0	-0.768811	-0.0198917	1.24394	0.174596
1.71	-32.014	453.932	-6.55844	-0.16774	0	-0.485588	0.122094	-1.73119	0.0250124	-7.19211	375.025	50.7856	-0.154478	0	-0.768248	-0.0334718	1.74535	0.236354
1.72	-31.6794	443.849	-4.37326	-0.166495	0	-0.486465	0.134741	-1.88781	0.0186006	-12.6742	355.632	49.5122	-0.151841	0	-0.76772	-0.06333270000000001	1.77708	0.247411
1.73	-31.422	434.545	-1.96209	-0.165337	0	-0.487277	0.153309	-2.12016	0.009573089999999999	-18.4765	336.32	48.2165	-0.148781	0	-0.767184	-0.08441269999999999	1.53653	0.220284
1.74	-30.988	426.77	0.418979	-0.164408	0	-0.487763	0.174127	-2.3981	-0.00235431	-20.9012	321.128	45.9758	-0.146327	0	-0.76655	-0.0822132	1.26313	0.180842
1.75	-30.3909	420.549	2.23543	-0.163938	0	-0.488133	0.191115	-2.64465	-0.0140576	-20.4127	312.004	43.939	-0.144903	0	-0.76583	-0.0653521	0.9988899999999999	0.140672
1.76	-29.9154	416.699	2.73638	-0.164101	0	-0.488045	0.202652	-2.8228	-0.0185368	-19.0685	308.805	42.4802	-0.144537	0	-0.765232	-0.0436355	0.706653	0.09720959999999999
1.77	-29.41	415.409	1.76234	-0.164974	0	-0.487796	0.201165	-2.84141	-0.0120545	-17.3431	309.656	41.0131	-0.145225	0	-0.764764	-0.0311382	0.555965	0.07363599999999999
1.78	-28.5938	415.266	-0.0841648	-0.166494	0	-0.487514	0.190522	-2.76694	0.000560794	-15.715	311.963	39.2594	-0.146487	0	-0.764299	-0.0299068	0.593689	0.07471360000000001
1.79	-27.6945	415.49	-2.28141	-0.168668	0	-0.4868	0.179684	-2.69573	0.0148019	-13.8409	314.417	37.1129	-0.148238	0	-0.763902	-0.0339338	0.770859	0.0909901
1.8	-26.7199	415.43	-4.0353	-0.17138	0	-0.485919	0.17136	-2.66424	0.0258792	-11.5109	315.77	34.647	-0.150765	0	-0.763701	-0.0392317	1.07622	0.118085
1.81	-25.2829	414.75	-5.37158	-0.17467	0	-0.485187	0.162127	-2.65959	0.0344453	-8.966620000000001	314.23	32.3513	-0.153792	0	-0.763939	-0.0389121	1.36365	0.140394
1.82	-23.1431	414.097	-6.94615	-0.178467	0	-0.484383	0.146325	-2.61819	0.043918	-6.7324	310.013	30.7598	-0.156719	0	-0.76457	-0.0319335	1.47047	0.145902
1.83	-20.8426	414.391	-8.82837	-0.182104	0	-0.483232	0.128475	-2.55433	0.0544185	-5.05476	303.917	29.8992	-0.159563	0	-0.7652870000000001	-0.0243601	1.46465	0.144091
1.84	-19.0434	414.939	-10.4446	-0.185083	0	-0.481794	0.114787	-2.50111	0.06295679999999999	-4.45126	297.03	29.2746	-0.161805	0	-0.766184	-0.0214173	1.42916	0.140855
1.85	-17.9134	413.191	-12.2601	-0.18698	0	-0.480368	0.10647	-2.45584	0.0728693	-4.83147	289.388	28.3662	-0.163119	0	-0.766983	-0.0227989	1.36558	0.133856
1.86	-17.6774	408.567	-14.5885	-0.187441	0	-0.479535	0.102447	-2.36779	0.0845458	-5.6053	281.467	27.4819	-0.16329	0	-0.767387	-0.0258185	1.29646	0.126584
1.87	-18.4414	401.823	-15.7786	-0.186487	0	-0.479365	0.105739	-2.30396	0.0904708	-6.60601	273.74	26.5571	-0.162068	0	-0.7672909999999999	-0.0314869	1.30476	0.126582
1.88	-19.4739	394.342	-15.6894	-0.184534	0	-0.479521	0.114977	-2.32826	0.0926326	-7.82255	265.208	24.6896	-0.15979	0	-0.766647	-0.0419878	1.42351	0.132522
1.89	-20.7276	386.269	-15.6366	-0.182176	0	-0.479459	0.124856	-2.32674	0.0941891	-8.80181	255.728	22.5011	-0.156811	0	-0.765908	-0.0512168	1.48805	0.130931
1.9	-21.7782	375.99	-16.037	-0.18001	0	-0.47937	0.130825	-2.25863	0.09633659999999999	-9.55232	245.034	20.5311	-0.153973	0	-0.76509	-0.0584331	1.49891	0.125592
